<svg xmlns="http://www.w3.org/2000/svg" width="104" height="74" viewBox="0 0 104 74" fill="none" id="Logo"><g id="logotype"><path d="M8.47167 67.076V52H6V67.076H8.47167Z" fill="#152C4F"/><path d="M9.98438 62.0507C9.98438 65.1307 12.0509 67.3191 15.1911 67.3191C18.3313 67.3191 20.3978 65.1307 20.3978 62.0507C20.3978 58.9706 18.3313 56.7822 15.1911 56.7822C12.0509 56.7822 9.98438 58.9706 9.98438 62.0507ZM12.4763 62.0507C12.4763 60.2472 13.5501 58.9909 15.1911 58.9909C16.8321 58.9909 17.9059 60.2472 17.9059 62.0507C17.9059 63.8338 16.8321 65.1104 15.1911 65.1104C13.5501 65.1104 12.4763 63.8338 12.4763 62.0507Z" fill="#152C4F"/><path d="M21.2285 61.8481C21.2285 64.7661 23.1126 66.8735 25.9287 66.8735C27.3874 66.8735 28.6435 66.2858 29.2715 65.3132V67.0153C29.2715 68.6566 28.2383 69.7509 26.5162 69.7509C24.9765 69.7509 23.923 69.0011 23.7812 67.684H21.2893C21.6134 70.298 23.6191 72.0001 26.3744 72.0001C29.616 72.0001 31.6824 69.8724 31.6824 66.5695V57.066H29.4944L29.3526 58.4236C28.7448 57.3699 27.4887 56.7417 26.0097 56.7417C23.1531 56.7417 21.2285 58.9099 21.2285 61.8481ZM23.7407 61.7873C23.7407 60.1257 24.7942 58.9099 26.3542 58.9099C28.056 58.9099 29.1905 60.146 29.1905 61.7873C29.1905 63.4489 28.056 64.7255 26.3542 64.7255C24.8144 64.7255 23.7407 63.4692 23.7407 61.7873Z" fill="#152C4F"/><path d="M32.9062 62.0507C32.9062 65.1307 34.9727 67.3191 38.1129 67.3191C41.2531 67.3191 43.3196 65.1307 43.3196 62.0507C43.3196 58.9706 41.2531 56.7822 38.1129 56.7822C34.9727 56.7822 32.9062 58.9706 32.9062 62.0507ZM35.3982 62.0507C35.3982 60.2472 36.4719 58.9909 38.1129 58.9909C39.7539 58.9909 40.8278 60.2472 40.8278 62.0507C40.8278 63.8338 39.7539 65.1104 38.1129 65.1104C36.4719 65.1104 35.3982 63.8338 35.3982 62.0507Z" fill="#152C4F"/><path d="M45.9939 55.0193C46.8043 55.0193 47.4729 54.3708 47.4729 53.54C47.4729 52.7295 46.8043 52.0811 45.9939 52.0811C45.1633 52.0811 44.5352 52.7295 44.5352 53.54C44.5352 54.3708 45.1633 55.0193 45.9939 55.0193ZM44.7581 67.076H47.2298V57.0659H44.7581V67.076Z" fill="#152C4F"/><path d="M49.3965 71.7161H51.8073V65.6979C52.4354 66.7313 53.7928 67.3392 55.292 67.3392C58.2499 67.3392 60.0125 65.0697 59.9719 61.9491C59.9112 58.8083 58.1081 56.7617 55.2717 56.7617C53.7523 56.7617 52.3746 57.4304 51.7668 58.5854L51.625 57.0657H49.3965V71.7161ZM51.9086 62.0707C51.9086 60.2673 53.0027 59.0109 54.7247 59.0109C56.4468 59.0109 57.48 60.2875 57.48 62.0707C57.48 63.8539 56.4468 65.1102 54.7247 65.1102C53.0027 65.1102 51.9086 63.8742 51.9086 62.0707Z" fill="#152C4F"/><path d="M60.5996 64.0768C60.6807 66.0626 62.2204 67.3392 64.611 67.3392C66.9611 67.3392 68.5616 66.0829 68.5616 64.1376C68.5616 62.6989 67.6702 61.7262 66.0292 61.321L64.2666 60.8954C63.517 60.6928 63.0105 60.4294 63.0105 59.781C63.0105 59.092 63.5575 58.6057 64.4489 58.6057C65.3809 58.6057 65.9887 59.1325 65.9887 60.0039H68.2375C68.1564 58.018 66.6775 56.7617 64.5097 56.7617C62.3622 56.7617 60.7617 58.018 60.7617 59.9228C60.7617 61.2197 61.5113 62.2936 63.436 62.8002L65.1783 63.246C65.8266 63.4284 66.2318 63.7323 66.2318 64.2997C66.2318 65.09 65.4822 65.4547 64.5705 65.4547C63.4765 65.4547 62.8484 64.9481 62.8484 64.0768H60.5996Z" fill="#152C4F"/><path d="M73.6885 67.3394C75.0459 67.3394 76.3425 66.7112 76.93 65.7791L77.0921 67.076H79.4017V57.0659H76.93V62.3141C76.93 64.1175 76.2412 65.1307 74.6205 65.1307C73.3644 65.1307 72.4932 64.5228 72.4932 62.4559V57.0659H70.0215V63.3273C70.0215 65.7183 71.3181 67.3394 73.6885 67.3394Z" fill="#152C4F"/><path d="M84.0536 67.0758V61.321C84.0536 59.6999 85.0058 58.9299 86.1809 58.9299C87.3559 58.9299 88.1258 59.6796 88.1258 61.0981V67.0758H90.5367V61.3412C90.5367 59.6999 91.4686 58.9299 92.6437 58.9299C93.839 58.9299 94.6089 59.6796 94.6089 61.0981V67.0758H96.9995V60.5307C96.9995 58.2207 95.7231 56.7617 93.292 56.7617C91.7725 56.7617 90.5772 57.4912 90.091 58.6665C89.544 57.4912 88.45 56.7617 86.7887 56.7617C85.6136 56.7617 84.5601 57.3088 83.9726 58.2004L83.851 57.0657H81.582V67.0758H84.0536Z" fill="#152C4F"/></g><g id="logomark"><path d="M45.487 38.3523C42.2308 44.2121 35.6009 47 28.8971 47H2C30 43.5 49.5 29.5 52 10C54.5 29.5 74 43.5 102 47H75.1029C68.3991 47 61.7692 44.2121 58.513 38.3523C54.9886 32.01 52.7432 24.8334 52 17C51.2568 24.8334 49.0114 32.01 45.487 38.3523Z" fill="#1A4688"/><g id="monovar"><path d="M30.1051 36.2813C28.5344 37.1656 26.8822 37.9962 25.1522 38.7699C24.1695 35.3753 23.8079 31.8138 24.0963 28.266C24.4778 23.5725 25.9851 19.0476 28.4847 15.0923C30.9844 11.137 34.3991 7.87319 38.4265 5.59008C42.4539 3.30698 46.9697 2.07501 51.5738 2.00332C56.1779 1.93162 60.7282 3.02241 64.8217 5.17906C68.9152 7.3357 72.4255 10.4916 75.0416 14.3673C77.6578 18.243 79.2991 22.7188 79.8202 27.3982C80.2463 31.2257 79.9123 35.0929 78.8478 38.7699C77.1178 37.9962 75.4656 37.1655 73.8949 36.2812C74.5571 33.593 74.7427 30.7964 74.4342 28.0256C74.014 24.2521 72.6904 20.6428 70.5808 17.5175C68.4711 14.3922 65.6404 11.8472 62.3394 10.1081C59.0384 8.36897 55.369 7.48937 51.6563 7.54718C47.9435 7.60499 44.302 8.59845 41.0544 10.4395C37.8067 12.2806 35.053 14.9125 33.0373 18.1021C31.0216 21.2917 29.8061 24.9405 29.4985 28.7254C29.2917 31.2694 29.4993 33.8222 30.1051 36.2813Z" fill="#7FB5E6"/></g></g></svg>