<svg id="logo" width="40" height="40" viewBox="0 0 40 40" xmlns="http://www.w3.org/2000/svg" fill="none"> <g id="logomark"> <path fill="#033CCE" d="M16.3662 34.0674C16.7359 35.7784 18.2495 37 20 37C21.7505 37 23.2641 35.7784 23.6338 34.0674L23.8643 33H35.1982C31.5301 37.2844 26.0824 40 20 40C13.9176 40 8.46992 37.2844 4.80176 33H16.1357L16.3662 34.0674Z"/> <path fill="#033CCE" d="M14.8389 27H25.1611L26.2412 22H39.9004C39.6525 24.4971 38.9451 26.8588 37.8643 29H2.13574C1.05487 26.8588 0.347551 24.4971 0.0996094 22H13.7588L14.8389 27Z"/> <path fill="#033CCE" d="M12.4619 16H27.5381L28.6182 11H40V18H0V11H11.3818L12.4619 16Z"/> <path fill="#033CCE" d="M0.738281 0C4.29632 0.213097 7.45893 2.11968 9.33789 5H30.708C32.6244 2.11683 35.8152 0.212879 39.3994 0H40V7H0V0H0.738281Z"/> </g> </svg>